<svg width="167" height="30" viewBox="0 0 167 30" fill="none" xmlns="http://www.w3.org/2000/svg">
<g clip-path="url(#clip0_1526_2794)" filter="url(#filter0_d_1526_2794)">
<path fill-rule="evenodd" clip-rule="evenodd" d="M28.4844 8.91848L32.2128 0H25.5519C22.2425 0.0441509 18.3884 0.176598 14.8694 1.45697C6.70048 4.41508 4.73155 9.40413 4.22885 11.4351C3.34911 15.1437 5.06669 19.0732 8.33428 20.7951C11.2248 22.2962 14.5343 22.1196 16.7965 21.7222C19.7708 21.1924 22.1587 20.1328 23.8763 18.5875C23.8828 18.5807 23.9106 18.5556 23.9533 18.5172C24.1848 18.3088 24.8528 17.7074 24.9236 17.4837L25.2587 16.2034C22.7871 17.1747 20.6925 17.6604 18.7654 17.7487C17.4668 17.7928 15.037 17.6604 13.6965 15.9826C11.56 13.3777 13.4451 9.49243 15.1208 7.6381C17.0059 5.563 20.5668 4.10603 24.5465 3.70867L22.3681 8.91848H28.4844ZM84.7035 10.4196C83.6562 10.1106 82.5251 10.1105 81.4359 10.1105H79.3413L77.8332 13.6868H81.1427C80.5143 15.9385 79.3413 17.263 77.4562 17.7487C75.6967 18.1902 74.1467 18.0135 74.1467 18.0135L80.4724 2.20754H74.0629C74.0629 2.20754 68.8264 15.0554 68.2399 16.689C67.1088 19.8237 69.748 21.4132 72.3872 21.5898C72.6795 21.6083 72.9254 21.6242 73.1368 21.6378L73.1391 21.638C74.4408 21.7222 74.4409 21.7222 75.9899 21.7222C82.0643 21.7222 87.4684 17.3513 87.5103 13.8192C87.5522 12.0973 86.4211 10.9053 84.7035 10.4196ZM107.66 14.04C107.577 13.157 107.242 12.3181 106.655 11.6559C105.985 10.8611 104.644 9.97814 102.131 9.97814H100.371C100.11 9.97814 99.8555 9.97754 99.6081 9.97696C96.8442 9.97048 94.9311 9.966 93.1239 10.817C90.4847 12.0532 88.1806 14.3932 88.4739 17.7045C88.5996 18.9849 89.3117 20.177 90.359 20.8393C91.4482 21.5015 92.8726 21.8106 94.0874 21.8106H95.9307C96.1935 21.8106 96.4474 21.8112 96.6933 21.8117C99.4265 21.8182 101.166 21.8223 103.01 20.9717C104.602 20.2211 106.152 19.0732 106.99 17.3955C107.535 16.38 107.786 15.1879 107.66 14.04ZM101.083 16.2917C100.664 16.954 100.036 17.4838 99.3658 17.7487C98.3604 18.1902 97.2712 18.2785 96.182 18.2785H94.4645V17.6604C94.4645 16.5566 94.632 16.071 95.0091 15.4528C95.8888 14.1283 97.3131 13.6427 98.7794 13.5102L98.8841 13.4991C99.2619 13.4589 99.6105 13.4219 99.9942 13.4219H101.46C101.46 13.4219 101.46 14.4815 101.419 14.923C101.502 15.4528 101.335 15.8943 101.083 16.2917ZM133.717 21.634C133.131 21.634 132.586 21.4132 132.042 20.9717C131.497 20.5302 131.288 20.0445 131.288 19.4706C131.288 19.3381 131.33 19.1615 131.371 18.9849C131.497 18.5875 133.005 15.0113 133.005 15.0113L126.093 20.0445C124.417 21.2366 122.993 21.8547 121.82 21.8547C120.731 21.8547 120.019 21.6781 119.6 21.2366C119.348 20.9717 119.223 20.6626 119.223 20.2211C119.223 19.8679 119.307 19.4706 119.516 19.0291L121.234 15.0113L112.646 21.634H107.242L112.017 10.1547H118.385L115.997 15.806L122.113 11.7C123.58 10.6404 125.088 10.1547 127.015 10.1547H129.905C129.78 10.4859 129.418 11.3636 129.192 11.912C129.117 12.0947 129.057 12.2409 129.025 12.3181L127.475 16.0268L133.801 11.6559C135.226 10.5962 136.817 10.0664 138.535 10.0664C139.499 10.0664 141.007 10.1547 141.426 10.1989L136.859 21.634H133.717ZM43.314 21.6339L48.1316 10.1547H39.0829C38.8234 10.1547 38.5691 10.1541 38.32 10.1535L38.3192 10.1535C35.5122 10.1471 33.3506 10.1421 31.5423 10.9936C28.9031 12.2298 26.6409 14.5698 26.9342 17.8811C27.018 18.7641 27.4369 19.6471 27.9815 20.3536C28.8612 21.4573 30.7464 21.943 32.0869 21.9871C34.1396 21.9871 36.8626 21.1924 38.1194 19.5147C37.9518 20.3536 38.4545 21.06 39.041 21.369C39.6425 21.686 40.3451 21.683 41.2701 21.679H41.2707C41.3763 21.6785 41.4848 21.6781 41.5964 21.6781C41.5546 21.6339 43.2302 21.6339 43.314 21.6339ZM38.4545 18.0577C35.2288 19.1173 33.4694 18.4992 33.1342 17.572C32.841 16.8656 33.0923 16.2034 33.4694 15.6294C34.4329 14.2166 35.8572 13.6426 38.4126 13.6426H40.2978L38.4545 18.0577ZM56.3009 14.9671L62.2077 10.1547H68.5334L66.1456 15.9385H60.155L60.9928 13.9517L54.8766 19.1615L53.6617 21.6339H47.2941L51.9441 10.1547H58.2699L56.3009 14.9671ZM163 10.1547L158.182 21.6339C158.099 21.6339 156.381 21.6339 156.465 21.6781C156.353 21.6781 156.244 21.6785 156.138 21.679C155.213 21.683 154.511 21.686 153.909 21.369C153.323 21.06 152.82 20.3536 152.988 19.5147C151.731 21.1924 149.008 21.9871 146.955 21.9871C145.615 21.943 143.73 21.4573 142.85 20.3536C142.305 19.6471 141.886 18.7641 141.802 17.8811C141.509 14.5698 143.771 12.2298 146.411 10.9936C148.219 10.1421 150.38 10.1471 153.187 10.1535C153.437 10.1541 153.691 10.1547 153.951 10.1547H163ZM148.003 17.572C148.338 18.4992 150.097 19.1173 153.323 18.0577L155.166 13.6426H153.281C150.725 13.6426 149.301 14.2166 148.338 15.6294C147.961 16.2034 147.709 16.8656 148.003 17.572Z" fill="#003154"/>
</g>
<defs>
<filter id="filter0_d_1526_2794" x="0" y="0" width="167" height="30" filterUnits="userSpaceOnUse" color-interpolation-filters="sRGB">
<feFlood flood-opacity="0" result="BackgroundImageFix"/>
<feColorMatrix in="SourceAlpha" type="matrix" values="0 0 0 0 0 0 0 0 0 0 0 0 0 0 0 0 0 0 127 0" result="hardAlpha"/>
<feOffset dy="4"/>
<feGaussianBlur stdDeviation="2"/>
<feComposite in2="hardAlpha" operator="out"/>
<feColorMatrix type="matrix" values="0 0 0 0 0 0 0 0 0 0 0 0 0 0 0 0 0 0 0.25 0"/>
<feBlend mode="normal" in2="BackgroundImageFix" result="effect1_dropShadow_1526_2794"/>
<feBlend mode="normal" in="SourceGraphic" in2="effect1_dropShadow_1526_2794" result="shape"/>
</filter>
<clipPath id="clip0_1526_2794">
<rect width="159" height="22" fill="white" transform="translate(4)"/>
</clipPath>
</defs>
</svg>
